<svg xmlns="http://www.w3.org/2000/svg" width="20" height="20" viewBox="0 0 20 20" fill="none">
  <mask id="mask0_4348_1742" style="mask-type:alpha" maskUnits="userSpaceOnUse" x="0" y="0" width="20" height="20">
    <rect width="20" height="20" fill="#D9D9D9"/>
  </mask>
  <g mask="url(#mask0_4348_1742)">
    <path d="M14.9678 10.6252V9.37521H17.9807V10.6252H14.9678ZM15.9198 16.2341L13.5095 14.4265L14.2691 13.4297L16.6794 15.2374L15.9198 16.2341ZM14.2371 6.53865L13.4775 5.54188L15.8877 3.73419L16.6473 4.73096L14.2371 6.53865ZM4.37493 15.4008V12.1476H3.52555C3.10997 12.1476 2.755 12.0004 2.46066 11.7061C2.16632 11.4118 2.01916 11.0568 2.01916 10.6412V9.35917C2.01916 8.94359 2.16632 8.58862 2.46066 8.29428C2.755 7.99994 3.10997 7.85278 3.52555 7.85278H6.7467L10.4807 5.62523V14.3751L6.7467 12.1476H5.62489V15.4008H4.37493ZM9.23068 12.154V7.84634L7.09284 9.10275H3.52555C3.46146 9.10275 3.40269 9.12946 3.34926 9.18288C3.29584 9.23631 3.26914 9.29507 3.26914 9.35917V10.6412C3.26914 10.7053 3.29584 10.7641 3.34926 10.8175C3.40269 10.8709 3.46146 10.8976 3.52555 10.8976H7.09284L9.23068 12.154ZM11.6345 12.5995V7.40084C11.9614 7.69678 12.2248 8.06964 12.4246 8.51942C12.6244 8.96921 12.7243 9.4628 12.7243 10.0002C12.7243 10.5376 12.6244 11.0312 12.4246 11.481C12.2248 11.9307 11.9614 12.3036 11.6345 12.5995Z" fill="currentColor"/>
  </g>
</svg>