<svg xmlns="http://www.w3.org/2000/svg" width="20" height="20" viewBox="0 0 20 20" fill="none">
  <mask id="mask0_4348_1747" style="mask-type:alpha" maskUnits="userSpaceOnUse" x="0" y="0" width="20" height="20">
    <rect width="20" height="20" fill="#D9D9D9"/>
  </mask>
  <g mask="url(#mask0_4348_1747)">
    <path d="M0.416901 14.823V13.807C0.416901 13.2525 0.706428 12.7971 1.28548 12.4408C1.86454 12.0845 2.61934 11.9063 3.54988 11.9063C3.70373 11.9063 3.85864 11.9111 4.01463 11.9208C4.17062 11.9304 4.32767 11.9491 4.48578 11.9768C4.32339 12.2365 4.20293 12.5059 4.1244 12.7853C4.04589 13.0647 4.00663 13.3513 4.00663 13.6451V14.823H0.416901ZM5.41688 14.823V13.6772C5.41688 13.287 5.52639 12.9304 5.74542 12.6073C5.96444 12.2842 6.28014 12.0025 6.69253 11.7621C7.10491 11.5217 7.59209 11.3414 8.15405 11.2212C8.71601 11.101 9.33032 11.0409 9.99698 11.0409C10.6765 11.0409 11.2972 11.101 11.8592 11.2212C12.4211 11.3414 12.9083 11.5217 13.3207 11.7621C13.7331 12.0025 14.0466 12.2842 14.2614 12.6073C14.4761 12.9304 14.5835 13.287 14.5835 13.6772V14.823H5.41688ZM15.9938 14.823V13.6475C15.9938 13.334 15.9566 13.0387 15.8824 12.7614C15.8081 12.4841 15.6968 12.2226 15.5483 11.9768C15.7117 11.9491 15.868 11.9304 16.017 11.9208C16.166 11.9111 16.3132 11.9063 16.4585 11.9063C17.3891 11.9063 18.1425 12.0823 18.7189 12.4344C19.2953 12.7864 19.5835 13.2439 19.5835 13.807V14.823H15.9938ZM6.73096 13.573H13.2823V13.4848C13.1968 13.1483 12.8421 12.8652 12.2182 12.6355C11.5942 12.4058 10.8549 12.2909 10.0002 12.2909C9.14548 12.2909 8.40616 12.4058 7.78223 12.6355C7.1583 12.8652 6.80788 13.1483 6.73096 13.4848V13.573ZM3.54776 11.097C3.15495 11.097 2.81939 10.9574 2.54109 10.6781C2.26278 10.3988 2.12363 10.063 2.12363 9.67078C2.12363 9.27335 2.26328 8.93762 2.54259 8.66358C2.82189 8.38953 3.15766 8.25251 3.54988 8.25251C3.94731 8.25251 4.28438 8.38953 4.56109 8.66358C4.8378 8.93762 4.97615 9.27414 4.97615 9.67316C4.97615 10.0604 4.83926 10.3946 4.56548 10.6756C4.29171 10.9565 3.95246 11.097 3.54776 11.097ZM16.4585 11.097C16.0696 11.097 15.7347 10.9565 15.4537 10.6756C15.1727 10.3946 15.0323 10.0604 15.0323 9.67316C15.0323 9.27414 15.1727 8.93762 15.4537 8.66358C15.7347 8.38953 16.0702 8.25251 16.4601 8.25251C16.8618 8.25251 17.1997 8.38953 17.4737 8.66358C17.7478 8.93762 17.8848 9.27335 17.8848 9.67078C17.8848 10.063 17.7481 10.3988 17.4747 10.6781C17.2014 10.9574 16.8626 11.097 16.4585 11.097ZM10.003 10.4159C9.40286 10.4159 8.89177 10.2056 8.46976 9.78495C8.04776 9.36428 7.83675 8.85347 7.83675 8.25251C7.83675 7.63954 8.04709 7.12573 8.46776 6.71107C8.88842 6.29642 9.39923 6.0891 10.0002 6.0891C10.6132 6.0891 11.127 6.29615 11.5417 6.71026C11.9563 7.12437 12.1636 7.63752 12.1636 8.2497C12.1636 8.84987 11.9566 9.36095 11.5425 9.78295C11.1283 10.2049 10.6152 10.4159 10.003 10.4159ZM10.0042 9.16599C10.259 9.16599 10.4743 9.07678 10.65 8.89837C10.8258 8.71994 10.9137 8.50332 10.9137 8.24851C10.9137 7.99371 10.8261 7.77843 10.651 7.60268C10.476 7.42693 10.259 7.33905 10.0002 7.33905C9.74805 7.33905 9.53278 7.4266 9.35436 7.60168C9.17594 7.77676 9.08673 7.99371 9.08673 8.25251C9.08673 8.50465 9.17594 8.71994 9.35436 8.89837C9.53278 9.07678 9.74939 9.16599 10.0042 9.16599Z" fill="currentColor"/>
  </g>
</svg>