<svg xmlns="http://www.w3.org/2000/svg" width="20" height="20" viewBox="0 0 20 20" fill="none">
  <mask id="mask0_4348_1752" style="mask-type:alpha" maskUnits="userSpaceOnUse" x="0" y="0" width="20" height="20">
    <rect width="20" height="20" fill="#D9D9D9"/>
  </mask>
  <g mask="url(#mask0_4348_1752)">
    <path d="M3.58952 17.9157C3.16857 17.9157 2.81227 17.7699 2.5206 17.4782C2.22893 17.1865 2.0831 16.8302 2.0831 16.4093V7.75548C2.0831 7.33454 2.22893 6.97823 2.5206 6.68656C2.81227 6.3949 3.16857 6.24906 3.58952 6.24906H7.91643V3.33238C7.91643 2.98624 8.03822 2.69137 8.28181 2.44777C8.52541 2.20419 8.82027 2.0824 9.16641 2.0824H10.8331C11.1792 2.0824 11.4741 2.20419 11.7177 2.44777C11.9613 2.69137 12.0831 2.98624 12.0831 3.33238V6.24906H16.41C16.8309 6.24906 17.1872 6.3949 17.4789 6.68656C17.7706 6.97823 17.9164 7.33454 17.9164 7.75548V16.4093C17.9164 16.8302 17.7706 17.1865 17.4789 17.4782C17.1872 17.7699 16.8309 17.9157 16.41 17.9157H3.58952ZM3.58952 16.6657H16.41C16.4848 16.6657 16.5462 16.6417 16.5943 16.5936C16.6424 16.5455 16.6664 16.4841 16.6664 16.4093V7.75548C16.6664 7.68069 16.6424 7.61925 16.5943 7.57117C16.5462 7.52309 16.4848 7.49904 16.41 7.49904H12.0831V7.81959C12.0831 8.16039 11.9599 8.45392 11.7137 8.70017C11.4674 8.94642 11.1739 9.06954 10.8331 9.06954H9.16641C8.82561 9.06954 8.53208 8.94642 8.28583 8.70017C8.03957 8.45392 7.91643 8.16039 7.91643 7.81959V7.49904H3.58952C3.51472 7.49904 3.45329 7.52309 3.4052 7.57117C3.35712 7.61925 3.33308 7.68069 3.33308 7.75548V16.4093C3.33308 16.4841 3.35712 16.5455 3.4052 16.5936C3.45329 16.6417 3.51472 16.6657 3.58952 16.6657ZM5.12795 14.7586H9.87154V14.5119C9.87154 14.2971 9.81224 14.0997 9.69364 13.9197C9.57506 13.7397 9.41107 13.5995 9.20166 13.499C8.92923 13.3794 8.65332 13.2897 8.37393 13.2298C8.09456 13.17 7.80316 13.1401 7.49975 13.1401C7.19633 13.1401 6.90493 13.17 6.62556 13.2298C6.34617 13.2897 6.07026 13.3794 5.79783 13.499C5.58843 13.5995 5.42443 13.7397 5.30585 13.9197C5.18725 14.0997 5.12795 14.2971 5.12795 14.5119V14.7586ZM11.6664 13.4926H14.9997V12.499H11.6664V13.4926ZM7.49975 12.499C7.80957 12.499 8.07399 12.3895 8.29302 12.1705C8.51203 11.9515 8.62154 11.6871 8.62154 11.3773C8.62154 11.0674 8.51203 10.803 8.29302 10.584C8.07399 10.365 7.80957 10.2555 7.49975 10.2555C7.18993 10.2555 6.9255 10.365 6.70647 10.584C6.48746 10.803 6.37795 11.0674 6.37795 11.3773C6.37795 11.6871 6.48746 11.9515 6.70647 12.1705C6.9255 12.3895 7.18993 12.499 7.49975 12.499ZM11.6664 11.249H14.9997V10.2555H11.6664V11.249ZM9.16641 7.81959H10.8331V3.33238H9.16641V7.81959Z" fill="currentColor"/>
  </g>
</svg>